<?xml version="1.0" standalone="no"?>
<!DOCTYPE svg PUBLIC "-//W3C//DTD SVG 20010904//EN"
 "http://www.w3.org/TR/2001/REC-SVG-20010904/DTD/svg10.dtd">
<svg version="1.0" xmlns="http://www.w3.org/2000/svg"
 width="220.000000pt" height="138.000000pt" viewBox="0 0 220.000000 138.000000"
 preserveAspectRatio="xMidYMid meet">

<g transform="translate(0.000000,138.000000) scale(0.100000,-0.100000)"
fill="#000000" stroke="none">
<path d="M1183 1353 c-11 -10 -48 -51 -83 -91 -56 -65 -62 -76 -52 -93 10 -16
10 -21 -3 -25 -14 -6 -92 52 -125 91 -11 14 -15 14 -36 0 -12 -8 -24 -10 -26
-5 -2 5 -54 -7 -115 -26 l-113 -35 0 -55 c0 -45 3 -54 16 -52 10 2 19 -3 21
-9 3 -8 -5 -13 -21 -13 -15 0 -43 -7 -63 -15 -19 -8 -37 -15 -38 -15 -1 0 -5
23 -7 51 -6 61 -48 110 -115 135 -56 22 -176 14 -253 -15 -65 -24 -148 -75
-156 -94 -2 -7 15 -47 40 -87 34 -57 50 -75 67 -75 20 0 33 -23 95 -165 40
-91 74 -169 76 -174 4 -10 130 28 165 50 21 13 21 15 7 66 -7 29 -14 55 -14
57 0 1 15 -10 34 -27 19 -17 48 -33 64 -37 36 -8 105 9 122 30 19 22 30 18 30
-11 0 -26 0 -26 63 -19 93 10 111 22 115 73 2 23 5 42 8 42 2 0 59 -27 125
-60 148 -75 159 -74 159 13 l0 62 44 16 44 16 -5 -32 -5 -32 76 -12 c42 -7 85
-10 95 -6 14 4 23 0 31 -15 6 -11 17 -20 24 -20 8 0 16 -6 19 -13 6 -16 156
-42 190 -33 20 5 23 11 19 31 -3 18 0 25 11 25 8 0 22 2 30 5 10 5 13 -1 9
-24 -4 -28 -2 -30 34 -36 81 -13 84 -14 84 -39 0 -21 9 -27 63 -43 38 -12 68
-17 79 -11 10 5 45 94 97 250 44 133 79 243 77 246 -11 10 -160 42 -174 37 -8
-3 -18 -1 -22 5 -8 13 -189 52 -212 44 -14 -4 -18 -16 -18 -60 0 -49 -2 -54
-22 -54 -13 0 -36 -7 -52 -15 -15 -8 -29 -15 -31 -15 -1 0 -7 33 -14 73 -21
129 -12 117 -89 117 -43 -1 -74 -6 -86 -15 -12 -9 -42 -15 -72 -15 -66 0 -84
-7 -84 -32 0 -15 -4 -18 -17 -13 -10 4 -37 15 -61 23 -23 8 -41 16 -39 18 2 2
27 16 55 32 l51 28 -40 57 c-22 31 -44 57 -49 57 -4 0 -17 -8 -27 -17z m67
-85 c0 -12 -118 -69 -124 -60 -3 5 16 32 41 61 l46 53 18 -23 c10 -13 19 -27
19 -31z m-424 -135 c7 -55 7 -56 23 -36 9 12 29 38 45 58 l28 37 39 -38 c22
-21 39 -42 39 -47 0 -5 -25 -35 -57 -68 -31 -32 -54 -61 -52 -62 2 -2 24 -12
49 -21 25 -10 61 -33 80 -51 19 -19 53 -41 75 -48 36 -12 40 -18 43 -50 2 -22
-1 -37 -8 -37 -5 0 -73 31 -150 70 l-139 70 -3 -78 -3 -77 -32 -3 c-28 -3 -33
1 -39 22 -3 15 1 43 10 66 21 54 20 78 -6 125 -11 22 -24 67 -27 100 -5 51 -9
60 -24 57 -13 -2 -18 2 -15 14 2 14 75 49 110 53 4 1 10 -25 14 -56z m783 -32
c12 -84 11 -90 -8 -122 -40 -65 -24 -146 39 -197 33 -26 24 -33 -33 -26 l-45
6 -13 87 -13 86 -20 -45 -19 -45 -28 59 -28 58 -6 -38 c-16 -95 -15 -94 -45
-94 -16 0 -35 3 -44 6 -23 9 -20 66 5 98 16 21 18 30 9 41 -11 13 -10 32 11
143 l10 52 48 0 c46 0 49 -1 55 -31 3 -17 6 -43 6 -58 1 -37 16 -8 24 48 9 58
11 61 50 61 l32 0 13 -89z m-1177 53 c32 -16 66 -58 74 -91 10 -38 -25 -113
-75 -161 l-45 -44 22 -87 c12 -47 22 -89 22 -93 0 -6 -55 -28 -70 -28 -5 0
-45 83 -91 184 -72 161 -85 183 -100 175 -25 -13 -24 -13 -54 37 l-28 47 24
18 c26 20 126 56 174 62 43 6 116 -3 147 -19z m826 -24 c17 -11 32 -23 32 -27
0 -4 -28 -36 -62 -70 -50 -51 -58 -63 -42 -63 12 0 33 10 48 21 l27 21 29 -27
c35 -33 29 -45 -34 -77 -59 -30 -141 -30 -184 1 -38 27 -52 56 -52 111 0 99
145 167 238 110z m684 -6 c12 -3 22 -28 33 -82 26 -123 29 -125 50 -33 10 45
21 84 25 86 12 7 90 -17 90 -29 0 -6 -30 -100 -66 -209 l-66 -198 -32 7 c-17
3 -32 7 -34 9 -1 1 -5 53 -9 116 -3 63 -8 109 -9 104 -1 -6 -8 -43 -14 -83
l-12 -73 -36 3 c-50 4 -53 32 -11 91 42 60 49 123 20 172 -11 20 -21 52 -21
71 0 19 -4 34 -10 34 -5 0 -10 8 -10 19 0 17 5 18 48 10 26 -5 55 -12 64 -15z
m-133 -99 c121 -62 -5 -275 -131 -222 -44 18 -59 38 -64 84 -7 50 22 101 72
130 45 26 84 29 123 8z m-819 -25 c0 -13 -7 -20 -20 -20 -19 0 -27 20 -13 33
13 14 33 6 33 -13z m-277 -10 c74 -58 43 -186 -55 -225 -53 -21 -96 -13 -130
23 -31 34 -39 63 -27 106 27 96 144 149 212 96z"/>
<path d="M334 1045 c-6 -14 22 -112 35 -128 4 -4 20 6 36 23 34 35 38 85 10
106 -25 18 -74 18 -81 -1z m66 -50 c0 -36 -17 -39 -28 -6 -11 32 -7 42 14 34
8 -3 14 -16 14 -28z"/>
<path d="M1117 1080 c-30 -24 -38 -79 -13 -99 11 -9 23 -1 59 41 25 29 43 56
39 60 -20 19 -59 18 -85 -2z m43 -18 c0 -13 -30 -52 -41 -52 -16 0 -10 39 9
49 21 13 32 14 32 3z"/>
<path d="M1697 992 c-33 -36 -15 -85 35 -97 21 -5 33 -1 52 19 15 14 26 32 26
41 0 19 -7 19 -26 0 -19 -19 -25 -19 -50 -1 -16 13 -17 18 -6 35 10 17 10 21
-1 21 -8 0 -21 -8 -30 -18z"/>
<path d="M590 960 c-11 -11 -20 -27 -20 -35 0 -22 45 -65 67 -65 34 0 63 29
63 62 l0 30 -18 -22 c-13 -16 -24 -21 -39 -16 -28 9 -36 32 -17 51 14 13 14
15 0 15 -9 0 -25 -9 -36 -20z"/>
<path d="M723 642 c-133 -48 -215 -165 -215 -309 0 -128 69 -236 191 -295 64
-31 195 -32 262 -1 58 26 122 83 151 134 12 22 24 39 27 39 4 0 12 -14 20 -32
21 -47 86 -107 150 -137 80 -37 192 -37 271 0 69 33 125 88 159 159 22 46 26
68 26 140 0 73 -4 92 -28 137 -36 69 -88 120 -155 151 -150 68 -319 21 -407
-115 -37 -57 -43 -62 -77 -62 -45 -1 -46 4 -13 39 l26 27 -51 47 c-28 26 -72
57 -98 68 -66 30 -172 34 -239 10z m234 -40 c23 -12 59 -36 78 -54 l36 -31
-48 -49 -47 -48 71 0 71 0 7 -45 c27 -182 -137 -351 -321 -332 -236 24 -350
293 -202 479 31 40 80 73 137 95 52 19 166 11 218 -15z m583 12 c75 -22 162
-109 184 -184 32 -107 12 -207 -55 -284 -80 -91 -198 -125 -314 -92 -75 23
-163 106 -188 180 -40 116 -10 234 79 315 84 77 181 99 294 65z"/>
<path d="M754 600 c-56 -17 -127 -73 -159 -124 -25 -41 -30 -62 -34 -124 -3
-63 -1 -74 11 -69 8 3 40 8 70 12 l56 7 5 45 c11 104 145 157 212 83 19 -21
19 -20 72 32 51 50 52 53 35 71 -50 56 -190 91 -268 67z"/>
<path d="M758 411 c-28 -25 -33 -36 -33 -76 0 -40 5 -51 33 -76 37 -33 94 -39
128 -14 17 13 15 14 -33 15 l-53 0 0 80 0 80 48 0 c34 0 43 3 32 10 -31 20
-88 11 -122 -19z"/>
<path d="M820 360 l0 -40 143 6 c78 4 143 8 145 9 1 1 -1 16 -4 33 l-6 32
-139 0 -139 0 0 -40z"/>
<path d="M940 313 c-88 -4 -120 -10 -120 -23 0 -6 27 -10 60 -10 59 0 67 -4
52 -26 -19 -27 -60 -44 -105 -44 -44 0 -54 4 -89 40 l-41 40 -63 -11 c-76 -13
-79 -23 -32 -93 48 -74 145 -126 234 -126 47 0 132 34 176 70 41 34 88 120 88
162 0 27 -2 28 -42 26 -24 -1 -77 -3 -118 -5z"/>
<path d="M1370 600 c-45 -13 -84 -38 -121 -77 -46 -48 -68 -90 -76 -148 l-6
-45 71 0 71 0 11 40 c37 137 250 113 252 -29 l0 -38 67 -10 c36 -6 69 -8 74
-6 12 7 8 77 -9 133 -39 130 -203 219 -334 180z"/>
<path d="M1369 411 c-24 -24 -29 -38 -29 -76 0 -38 5 -52 29 -76 42 -42 110
-42 152 0 41 42 41 106 0 150 -24 26 -36 31 -76 31 -38 0 -52 -5 -76 -29z
m100 -55 c16 -19 -4 -59 -26 -54 -26 5 -39 34 -24 52 17 20 35 20 50 2z m-56
-46 c9 -11 24 -20 32 -20 8 0 23 9 32 20 21 24 63 27 63 4 0 -8 -13 -29 -29
-45 -22 -21 -39 -29 -66 -29 -27 0 -44 8 -66 29 -16 16 -29 37 -29 45 0 23 42
20 63 -4z"/>
<path d="M1175 283 c23 -122 146 -223 271 -223 93 0 203 70 244 156 12 25 21
47 18 49 -2 2 -32 8 -67 14 l-64 10 -38 -39 c-38 -39 -56 -45 -119 -40 -33 3
-88 45 -96 74 -6 25 -41 36 -118 36 l-38 0 7 -37z"/>
<path d="M2081 634 c0 -11 3 -14 6 -6 3 7 2 16 -1 19 -3 4 -6 -2 -5 -13z"/>
<path d="M2130 639 c0 -5 -4 -8 -9 -4 -5 3 -12 1 -15 -4 -4 -5 2 -8 11 -7 15
3 33 26 19 26 -3 0 -6 -5 -6 -11z"/>
</g>
</svg>
